<?xml version="1.0" encoding="UTF-8" standalone="no"?>
<svg
   id="Layer_2"
   viewBox="0 0 458.23167 356.16865"
   version="1.1"
   sodipodi:docname="favicon2.svg"
   inkscape:version="1.2.2 (b0a84865, 2022-12-01)"
   width="458.23169"
   height="356.16864"
   xmlns:inkscape="http://www.inkscape.org/namespaces/inkscape"
   xmlns:sodipodi="http://sodipodi.sourceforge.net/DTD/sodipodi-0.dtd"
   xmlns="http://www.w3.org/2000/svg"
   xmlns:svg="http://www.w3.org/2000/svg">
  <sodipodi:namedview
     id="namedview28"
     pagecolor="#ffffff"
     bordercolor="#000000"
     borderopacity="0.25"
     inkscape:showpageshadow="2"
     inkscape:pageopacity="0.0"
     inkscape:pagecheckerboard="0"
     inkscape:deskcolor="#d1d1d1"
     showgrid="false"
     inkscape:zoom="1.6903688"
     inkscape:cx="258.22768"
     inkscape:cy="126.59959"
     inkscape:window-width="1512"
     inkscape:window-height="916"
     inkscape:window-x="0"
     inkscape:window-y="38"
     inkscape:window-maximized="1"
     inkscape:current-layer="Layer_2" />
  <defs
     id="defs4">
    <style
       id="style2">.cls-1{fill:#b7c0d1;}.cls-2{fill:none;stroke:#000;stroke-miterlimit:10;stroke-width:11px;}</style>
  </defs>
  <g
     id="Layer_1-2"
     transform="matrix(1.2612797,0,0,1.3579273,-31.971149,24.836814)">
    <path
       class="cls-1"
       d="m 247.41,59.069924 c -2.3,-5.127372 -5.12,-24.333473 -6.99,-29.687053 -7.44,-21.2850565 -27.2,-41.395988 -30.7,-40.631191 -10.29,2.2405323 -18.79,13.734032 -37.1,51.75845 -1.57,3.25308 -4.2,5.730592 -7.56,6.053746 l -19.89,0.280066 C 140.65,47.285586 134.54,43.978646 133.55,39.142113 128.94,16.532126 105.96,-7.3273885 97.48,-6.2825249 84.47,-7.3166167 69.76,29.01663 61.63,53.543996 58.04,64.391188 46.06,98.979405 37.99,130.92853 c -1.15,4.56724 19.32,2.77913 25.69,-7.32481 20.45,-32.466178 16.42,-58.264615 39.89,-58.383104 23.47,-0.11849 26.91,29.848629 35.9,43.388764 6.94,10.44864 21.06,10.72871 28.27,0.50628 10.31,-14.606548 15.92,-45.241518 37.45,-45.198431 28.8,0.05386 27.16,50.670501 43.91,61.409971 7.62,4.8904 23.99,5.4613 23.07,2.68218 -6.6,-20.02476 -20.49,-59.417194 -24.75,-68.928685 z"
       id="path6"
       style="stroke-width:1.03787" />
    <path
       class="cls-2"
       d="M 253.19,232.30185 C 208.21,243.31062 114.38,238.76492 81.07,236.62133 47.77,234.46698 30.55,216.71507 29.88,185.86466 29.22,155.01426 48.7,87.195067 59.63,54.685805 67.76,30.503137 84.82,-6.7026247 100.48,-7.1119527 c 12.39,-0.3231537 26.95,24.7428007 36.07,47.6005387 1.79,4.491837 5.1,8.024984 9.62,7.594112 l 19.89,-0.280066 c 3.36,-0.312382 6.1,-2.692948 7.56,-5.967572 12.76,-28.642189 19.77,-53.072608 36.1,-53.08338 30.67,-0.02154 67.22,136.70478 72.81,178.8548 2.62,19.71237 -2.21,58.05994 -29.34,64.69537 z"
       id="path8"
       style="stroke-width:9.02949;stroke-dasharray:none"
       sodipodi:nodetypes="cccccccccccc" />
    <ellipse
       id="ellipse10"
       ry="22.89806"
       rx="22.092325"
       cy="107.76857"
       cx="103.85284"
       style="stroke-width:1.17003" />
    <ellipse
       cx="205.88902"
       cy="106.29574"
       rx="22.633451"
       ry="22.863338"
       id="ellipse12"
       style="stroke-width:1.18337" />
    <path
       class="cls-2"
       d="m 282.53,167.60648 c 16.86,0.5709 24.46711,-0.316 33.99711,-12.29423 8.04,-10.09316 1.52305,-30.66367 -7.43695,-38.97949 -12.34,-11.43964 -25.1,-23.256296 -29.95,-38.62764 -6.36,-20.154019 -4.83,-40.975888 4.31,-58.62008 7.98,-15.4144311 21.15,-26.6817232 35.21,-30.15024 23.23,-5.730592 54.07,4.9765673 63.36,32.272283 2.85,8.36968 -1.14,17.654963 -8.92,20.724923 -7.78,3.06996 -16.4,-1.227984 -19.25,-9.608436 -3.29,-9.673068 -18.28,-14.412655 -28.49,-11.892056 -5.75,1.421876 -11.91,7.066294 -15.71,14.401883 -4.95,9.554577 -5.7,21.080392 -2.11,32.466174 2.22,7.023207 11.83,15.931477 21.11,24.538137 10.82,10.028532 22.01,20.401772 29.25,33.651072 9.46,17.29949 -0.72249,43.26517 -13.03249,60.79087 -21.23855,24.37506 -34.05968,21.41807 -69.96968,28.18276"
       id="path16"
       sodipodi:nodetypes="cccccccscccccccc"
       style="stroke-width:8.40521298;stroke-dasharray:none" />
  </g>
  <path
     style="fill:#a2b0d8;fill-opacity:1;stroke-width:1.99956"
     d="m 23.732371,203.57096 c 0,-4.46655 16.613817,-68.72797 23.854211,-92.26696 14.875586,-48.361483 35.755464,-86.793001 47.154711,-86.793001 8.565197,0 21.038177,17.650187 34.583487,48.938137 10.25244,23.681885 12.90952,25.532501 35.45317,24.692587 11.66934,-0.434767 19.14998,-1.748834 21.93304,-3.852809 2.46298,-1.862014 9.64696,-16.117342 17.23414,-34.198164 17.78254,-42.377071 24.69193,-48.800427 37.96031,-35.289947 16.64794,16.951721 39.24229,76.354307 57.48636,151.136787 l 6.21023,25.4557 -7.71056,-1.45334 c -17.91913,-3.37752 -21.69129,-8.13973 -34.49196,-43.54463 -10.39132,-28.74094 -16.12318,-37.7885 -26.98878,-42.60088 -17.49897,-7.75032 -30.2965,2.58613 -46.49618,37.55453 -11.27797,24.34452 -16.77251,30.35646 -27.74383,30.35646 -11.35414,0 -16.43655,-5.66232 -27.00516,-30.08649 -4.99965,-11.55423 -11.69026,-24.02294 -14.86802,-27.70826 -11.60933,-13.46354 -29.302902,-14.25753 -39.907155,-1.79081 -3.194619,3.75569 -9.424686,16.4478 -13.844592,28.20466 -11.903748,31.66375 -19.824398,46.33123 -26.860706,49.74074 -9.572805,4.63861 -15.952716,6.04065 -15.952716,3.50569 z"
     id="path6784" />
  <path
     style="fill:#a2b0d8;fill-opacity:1;stroke-width:1.99956"
     d="m 231.29329,16.620995 c -14.60549,4.587893 -19.455,24.801768 -26.77106,38.133618 -6.8444,12.897794 -10.48712,29.8542 -20.97586,39.386936 -13.5144,1.91851 -28.53179,4.802339 -41.41137,-1.316403 C 129.51918,78.385964 125.6629,56.549637 114.22884,40.791494 108.5609,31.438164 97.063801,16.179559 86.808631,26.916693 57.70595,59.148047 48.218777,106.92687 35.398923,149.49355 c -4.089589,18.24705 -11.513298,36.46526 -12.555051,55.17953 7.121329,3.82632 16.818023,-1.57451 22.451855,-7.25913 18.047321,-22.63314 21.198792,-56.38673 39.891843,-78.25234 15.02523,-10.75138 34.8839,0.55771 41.37077,18.51067 9.60967,14.55761 13.23787,38.03344 29.6041,44.83226 13.03306,4.39511 24.5152,-6.8618 29.69403,-19.89324 9.63499,-17.7305 17.82861,-41.27041 36.13475,-48.73212 19.9155,-4.89973 31.01028,19.78533 37.85735,37.19994 7.58991,19.68775 14.81098,47.41616 36.5627,50.3976 5.04781,3.36957 11.54016,-0.70329 8.71456,-7.70497 C 292.71914,141.15764 278.92128,87.795747 254.52121,40.791494 248.31077,32.11441 241.88912,18.251139 231.29329,16.620995 Z"
     id="path11064" />
  <path
     style="fill:#a2b0d8;fill-opacity:1;stroke-width:1.99956"
     d="m 378.20431,13.176142 c -34.65833,3.254086 -60.79562,47.029481 -57.65888,86.343268 -0.93873,23.38765 8.81122,45.75687 23.49562,61.21885 11.90743,13.51227 19.80978,22.04323 29.32518,37.65178 24.38552,11.42657 28.79609,-3.95063 33.5447,-13.2625 -7.47605,-10.23915 -17.83339,-21.99164 -27.0568,-30.22736 -12.31237,-16.58432 -24.70009,-16.98449 -31.81893,-50.5807 -1.77128,-23.853221 8.38487,-48.599026 26.72391,-56.496969 16.36541,-2.57399 36.22324,0.151694 43.88103,19.330681 8.48239,19.784712 30.68777,7.992197 26.9677,-8.371059 C 435.59202,21.40257 403.81985,11.38662 378.20431,13.176142 Z"
     id="path11066"
     sodipodi:nodetypes="ccccccccccc" />
  <path
     style="fill:#a2b0d8;fill-opacity:1;stroke-width:2.88046;stroke-dasharray:none"
     d="m 23.920471,205.55125 -2.730106,-0.29851 1.30469,-5.94542 c 9.001532,-41.0197 24.475232,-96.13366 33.60233,-119.6842 5.630663,-14.528736 12.34335,-28.598358 18.376207,-38.516081 1.643173,-2.701295 5.096153,-7.373372 7.673285,-10.382392 9.226694,-10.772937 14.279146,-11.534237 22.750473,-3.428019 8.63132,8.259323 18.20047,25.320633 29.05829,51.809497 2.24372,5.473778 3.58374,8.029492 5.49782,10.485571 2.74805,3.526191 3.63045,4.09439 8.6756,5.58645 4.50962,1.333674 21.03088,1.356485 29.56317,0.04079 6.70408,-1.033762 7.1287,-1.307169 11.22348,-7.226516 3.20835,-4.6379 5.81778,-10.279379 12.47991,-26.981124 9.02688,-22.630087 13.6747,-31.986032 18.90076,-38.046792 1.6248,-1.884331 4.05631,-4.092936 5.40332,-4.908008 2.12792,-1.287583 2.94612,-1.483577 6.23838,-1.494335 3.1569,-0.01034 4.14642,0.199246 5.92972,1.255798 6.71975,3.981306 15.06727,15.548465 23.14924,32.077983 5.92256,12.112998 14.06885,31.951323 14.43609,35.155617 0.42118,3.674857 1.63068,8.224388 4.39819,16.543821 1.56071,4.69172 3.9319,12.02011 5.26928,16.28532 3.09426,9.86827 12.67615,38.81259 13.50398,40.79197 0.56852,1.35933 6.52491,25.07556 9.26395,36.8857 l 1.10892,4.7815 -0.97166,0.23591 c -0.53442,0.12977 -1.9747,0.50057 -3.20063,0.82406 -4.23988,1.11874 -5.44262,1.11403 -9.42113,-0.0367 -5.67472,-1.64163 -8.1666,-2.82225 -11.84641,-5.61267 -7.49462,-5.68319 -12.28449,-14.16048 -20.66869,-36.58037 -7.18522,-19.21372 -11.72458,-28.38629 -17.59439,-35.55266 -5.79312,-7.07271 -11.47812,-10.24494 -18.32584,-10.22578 -4.24718,0.0118 -7.05494,1.03023 -11.87213,4.30591 -3.55878,2.41996 -11.82556,12.14552 -15.09712,17.76114 -2.59316,4.45117 -11.38797,21.4472 -14.92768,28.84779 -4.66168,9.74633 -10.5769,15.74282 -17.97192,18.21878 -1.96734,0.65872 -3.65128,0.82112 -6.53579,0.6304 -3.3639,-0.22244 -4.35485,-0.52551 -7.38018,-2.25719 -6.52956,-3.7375 -10.5813,-9.61712 -18.0722,-26.22521 -2.45733,-5.44815 -5.31071,-11.41859 -6.34084,-13.26765 -1.03012,-1.84908 -2.5171,-4.76558 -3.30439,-6.48114 -3.14702,-6.85758 -8.78244,-13.07124 -15.00052,-16.53971 -7.52745,-4.19883 -15.680302,-4.4799 -22.753854,-0.78444 -2.185257,1.14165 -3.235322,2.16748 -5.62493,5.49507 -5.960591,8.3003 -9.813705,16.15152 -17.104465,34.85255 -7.691126,19.728 -11.432048,27.5723 -17.039938,35.73091 -4.142666,6.02693 -10.422994,10.47152 -16.768645,11.86717 -2.276778,0.50073 -2.720497,0.50108 -7.253627,0.004 z"
     id="path16350" />
  <path
     style="fill:#a2b0d8;fill-opacity:1;stroke-width:1.43278;stroke-dasharray:none"
     d="m 275.4717,84.164812 c -0.40421,0.743491 0.23462,1.918458 0.25175,2.779807 1.41658,8.083067 4.56979,15.541881 6.90298,23.289621 4.97626,15.71988 10.1225,31.37151 15.43061,46.94396 0.10228,0.74101 0.718,0.41018 0.3495,-0.22803 -6.25827,-23.56531 -13.27127,-46.88579 -21.5421,-69.609763 -0.49467,-0.983509 -0.678,-2.415655 -1.39274,-3.175595 z"
     id="path16354" />
  <path
     style="fill:#ffffff;fill-opacity:1;stroke-width:3.57633;stroke-dasharray:none"
     d="m 225.98584,113.34472 c -10.13708,0.843 -17.43564,10.47328 -23.65514,18.8079 -8.92164,13.26068 -14.41804,29.20163 -23.61517,42.21438 -5.94485,7.81265 -15.7997,10.88494 -24.25727,7.31906 -9.36319,-4.32872 -13.89356,-15.86634 -18.6436,-25.37716 -4.43005,-9.27051 -8.42741,-18.98516 -14.04465,-27.38078 -6.62519,-9.1556 -16.90039,-15.31511 -27.373904,-13.50227 -7.536921,0.73442 -12.991316,7.568 -16.737625,14.59675 -11.642325,20.29263 -16.805787,44.85446 -29.996477,64.02616 -5.241219,7.10972 -13.043962,12.38966 -21.347669,11.54826 -2.731684,0.0873 -6.286929,-0.86492 -6.020823,3.62894 -4.584325,24.86632 -10.3187967,50.15301 -8.486102,75.79584 1.204206,17.44604 9.234337,34.51493 22.558979,43.29257 14.810866,10.44685 32.627007,11.20754 49.444531,12.16905 30.37389,1.80454 60.7862,3.11038 91.20641,2.4879 25.9168,-0.3502 51.90312,0.14701 77.70042,-3.26925 12.77884,-1.74892 25.84343,-2.77928 38.1365,-7.44609 14.73652,-6.5876 22.9534,-24.27587 26.2886,-41.27657 2.81295,-13.77589 2.68229,-28.2287 1.16744,-42.20566 -2.75555,-15.9427 -5.30059,-32.06223 -9.29903,-47.62406 -2.73354,-1.35891 -5.79027,1.49285 -8.68825,1.07817 -10.27045,-1.02177 -20.80317,-7.06446 -26.26363,-17.57017 -11.25149,-19.85344 -15.32618,-44.72866 -29.83653,-62.14221 -4.75851,-5.70828 -11.29398,-9.47849 -18.23701,-9.17076 z M 98.928868,139.18459 c 12.431312,-0.41639 24.038622,10.30645 26.805302,24.2803 4.07466,16.08918 -3.73417,35.0271 -17.48247,40.6573 -13.042093,5.723 -28.809357,-2.36407 -34.352064,-17.1439 -6.768123,-16.13108 -0.548529,-38.22266 14.035139,-45.20356 3.453757,-1.73458 7.235164,-2.59589 10.994093,-2.59014 z m 129.000672,0.009 c 12.39167,-0.57704 23.65467,10.50214 27.23551,23.84025 3.63564,14.7592 -2.22582,32.35244 -14.49973,39.00235 -12.20106,8.28953 -28.97075,2.69411 -36.56607,-10.78922 -8.23179,-13.51089 -5.85322,-33.66945 5.17418,-44.15454 5.03941,-5.38106 11.83498,-8.04435 18.65611,-7.89884 z"
     id="path22835" />
  <path
     style="fill:#ffffff;stroke-width:6.81505;stroke-dasharray:none"
     d="m 407.04806,185.78275 c -3.96713,6.01431 -7.12773,14.38743 -14.98536,16.14945 -6.08831,1.19882 -12.19045,-1.25591 -17.84474,-2.80492 0.19149,4.46849 2.33481,8.8742 2.44795,13.46433 1.30636,9.91795 0.10774,20.75766 -6.67469,28.60337 -6.62748,9.1407 -16.76361,15.97178 -28.24761,16.60443 -3.64804,0.41664 -7.41784,0.30301 -11.00428,0.73571 0.52746,16.54644 -1.02409,33.26874 -6.06239,49.06668 3.08733,0.91377 6.75417,-0.9743 9.96759,-1.07283 17.26164,-3.23959 36.339,-5.35973 49.86656,-17.75622 9.17995,-7.86599 17.08713,-17.30192 21.98492,-28.43401 8.17606,-16.61948 14.69943,-35.67047 10.89927,-54.35647 -1.8828,-7.31175 -5.92643,-13.98408 -10.14634,-20.15111 -0.0573,-0.039 -0.13008,-0.0741 -0.20088,-0.0484 z"
     id="path3228" />
  <path
     style="fill:#ffffff;stroke-width:6.81505;stroke-dasharray:none"
     d="m 225.58764,113.60032 c -8.33648,0.0397 -13.9435,7.50978 -19.18307,12.98152 -8.70935,10.67865 -13.78816,23.74237 -20.60085,35.61575 -4.33596,7.95408 -8.95927,17.42313 -18.46226,20.01186 -9.11554,3.09446 -18.97282,-2.56469 -23.23192,-10.72596 -8.60389,-14.24014 -13.96731,-30.30782 -23.36261,-44.07881 -7.00947,-9.04764 -19.5706,-15.33081 -30.858917,-10.84455 -9.00259,4.47059 -12.854934,14.64915 -17.177375,23.07087 -8.758995,18.25865 -14.07663,38.34718 -25.829328,55.05174 -4.920423,6.4828 -12.582924,11.55113 -21.024701,10.85611 -2.242317,0.0344 -5.932196,-0.17407 -5.511606,3.18442 -4.885669,27.49199 -11.4528284,55.57314 -7.443732,83.61121 2.609616,17.04732 12.941527,33.44814 29.06478,40.55392 17.083159,8.03753 36.457936,7.10901 54.838316,8.56266 23.337713,1.33766 46.701813,2.02836 70.078433,1.60359 22.77934,-0.38375 45.61108,0.16794 68.35028,-1.35438 17.72091,-1.84866 35.72765,-3.15918 52.88193,-8.23951 13.28789,-4.77817 21.60722,-17.88978 25.85654,-30.75244 8.54712,-25.94636 5.22839,-53.86917 -0.36751,-80.04814 -1.59031,-6.97517 -2.41085,-14.24196 -4.72926,-20.99782 -3.13184,-1.70072 -7.04729,0.67791 -10.45249,-0.01 -11.25548,-1.17798 -20.88817,-9.384 -25.51449,-19.54077 -10.03892,-18.81642 -14.18403,-40.66715 -27.21624,-57.8679 -4.90252,-6.28499 -11.61651,-11.63819 -20.10392,-10.64368 z m 2.46247,25.49231 c 12.00369,-0.13397 21.79992,9.42562 25.8266,20.137 6.79046,14.73241 -1.92818,33.55226 -16.7318,39.30714 -11.59661,4.4184 -25.69007,-0.13007 -32.27202,-10.7374 -7.89914,-10.68085 -6.79765,-25.87461 0.70764,-36.44279 4.98905,-7.37225 13.46347,-12.43081 22.46958,-12.26395 z m -126.86257,1.34438 c 9.4418,-0.0862 17.68186,7.12731 21.79074,15.23464 6.23009,12.19816 4.91109,28.45027 -5.13912,38.23665 -7.81913,8.7806 -21.830519,11.2197 -31.823336,4.75795 -12.372868,-7.18622 -17.346364,-23.18778 -13.40624,-36.58129 2.543513,-10.45661 11.201063,-19.80648 22.01339,-21.5693 2.185401,-0.12934 4.376725,-0.0749 6.564566,-0.0787 z"
     id="path3230" />
</svg>
